<mxfile host="app.diagrams.net" modified="2023-05-28T13:35:58.123Z" agent="Mozilla/5.0 (Macintosh; Intel Mac OS X 10_15_7) AppleWebKit/537.36 (KHTML, like Gecko) Chrome/112.0.0.0 Safari/537.36" version="21.3.2" etag="r0fu-7EFbw1Hx31xfwjg" type="github">
  <diagram name="第 1 页" id="Dv7pjOB5OMP_o0imBPV1">
    <mxGraphModel>
      <root>
        <mxCell id="0" />
        <mxCell id="1" parent="0" />
      </root>
    </mxGraphModel>
  </diagram>
</mxfile>
